<?xml version="1.0" encoding="UTF-8" standalone="no"?>
<svg
   width="128"
   height="128"
   viewBox="0 0 128 128"
   version="1.1"
   id="svg12"
   sodipodi:docname="effects.svg"
   inkscape:version="1.3.2 (091e20ef0f, 2023-11-25)"
   xmlns:inkscape="http://www.inkscape.org/namespaces/inkscape"
   xmlns:sodipodi="http://sodipodi.sourceforge.net/DTD/sodipodi-0.dtd"
   xmlns="http://www.w3.org/2000/svg"
   xmlns:svg="http://www.w3.org/2000/svg">
  <sodipodi:namedview
     id="namedview12"
     pagecolor="#ffffff"
     bordercolor="#111111"
     borderopacity="1"
     inkscape:showpageshadow="0"
     inkscape:pageopacity="0"
     inkscape:pagecheckerboard="1"
     inkscape:deskcolor="#d1d1d1"
     inkscape:zoom="5.2149125"
     inkscape:cx="50.336415"
     inkscape:cy="57.239695"
     inkscape:window-width="2560"
     inkscape:window-height="944"
     inkscape:window-x="0"
     inkscape:window-y="29"
     inkscape:window-maximized="1"
     inkscape:current-layer="svg12" />
  <defs
     id="defs2">
    <linearGradient
       id="linear-pattern-0"
       gradientUnits="userSpaceOnUse"
       x1="12"
       y1="12"
       x2="116"
       y2="116">
      <stop
         offset="0"
         stop-color="rgb(60.000002%, 75.686276%, 94.509804%)"
         stop-opacity="1"
         id="stop1" />
      <stop
         offset="1"
         stop-color="rgb(61.56863%, 60.000002%, 94.509804%)"
         stop-opacity="1"
         id="stop2" />
    </linearGradient>
  </defs>
  <path
     id="rect1"
     style="fill:#000000;fill-opacity:0.196032;-inkscape-stroke:none"
     d="M 12 88 L 12 92 C 12 105.29599 22.704013 116 36 116 L 92 116 C 105.29599 116 116 105.29599 116 92 L 116 88 C 116 101.29599 105.29599 112 92 112 L 36 112 C 22.704013 112 12 101.29599 12 88 z " />
  <path
     id="rect1-6"
     style="fill:#ffffff;fill-opacity:0.39911598;-inkscape-stroke:none"
     d="M 12,40 V 36 C 12,22.70401 22.704013,12 36,12 h 56 c 13.29599,0 24,10.70401 24,24 v 4 C 116,26.70401 105.29599,16 92,16 H 36 C 22.704013,16 12,26.70401 12,40 Z" />
</svg>
