<svg xmlns="http://www.w3.org/2000/svg" xmlns:svg="http://www.w3.org/2000/svg" xmlns:xlink="http://www.w3.org/1999/xlink" id="svg5" width="109" height="109" version="1.1" viewBox="0 0 109 109"><defs id="defs2"><linearGradient id="gradient-bg" x1="0" x2="128" y1="0" y2="128" gradientUnits="userSpaceOnUse"><stop offset="0%" style="stop-color:#1c3620;stop-opacity:1" id="stop1"/><stop offset="100%" style="stop-color:#5f5f63;stop-opacity:1" id="stop2"/></linearGradient></defs><g id="overlay-frame" mask="none" transform="translate(9.5,9.5)"><svg id="svg4" width="109" height="109" mask="none" version="1.1" viewBox="0 0 109 109" style="display:inline"><defs id="defs1"><linearGradient id="linearGradient1"><stop style="stop-color:#cdcdcd;stop-opacity:1" id="stop3" offset="0"/><stop style="stop-color:gray;stop-opacity:1" id="stop4" offset="1"/></linearGradient><linearGradient id="linearGradient2" x1="-11.156" x2="139.156" y1="-11.156" y2="139.156" gradientTransform="matrix(0.8515625,0,0,0.8515625,9.5000321,9.5000321)" gradientUnits="userSpaceOnUse" xlink:href="#linearGradient1"/></defs></svg><path style="baseline-shift:baseline;display:inline;overflow:visible;opacity:1;fill:url(#linearGradient2);stroke:none;stroke-width:.999998;stroke-dasharray:none;enable-background:accumulate;stop-color:#000;stop-opacity:1" id="path4" d="M 12.065047,-9.5 C 1.3443034,-9.5 -9.5,1.3443041 -9.5,12.065048 V 77.934955 C -9.5,88.655696 1.3443034,99.5 12.065047,99.5 H 77.934949 C 88.655687,99.5 99.5,88.655696 99.5,77.934955 V 12.065048 C 99.5,1.3443041 88.655687,-9.5 77.934949,-9.5 Z m 1.842476,17.2493635 h 62.18495 c 3.408193,0 5.94005,2.5318545 5.94005,5.9400475 v 62.403066 c 0,3.408195 -2.531857,5.940043 -5.94005,5.940043 h -62.18495 c -3.408192,0 -5.9400461,-2.531848 -5.9400461,-5.940043 V 13.689411 c 0,-3.408193 2.5318541,-5.9400475 5.9400461,-5.9400475 z" mask="none"/></g></svg>