<svg xmlns="http://www.w3.org/2000/svg" width="128" height="128" viewBox="0 0 128 128"><defs><linearGradient id="bg-gradient" x1="0%" x2="100%" y1="0%" y2="100%" gradientTransform="rotate(45 0.5 0.5)"><stop offset="0%" style="stop-color:#5f5f63;stop-opacity:1"/><stop offset="100%" style="stop-color:#2f2f31;stop-opacity:1"/></linearGradient></defs><g id="icon" transform="translate(9.5,9.5)"><rect id="background" width="109" height="109" x="0" y="0" fill="url(#bg-gradient)" fill-opacity="1" rx="24"/><g id="group-0" style="mix-blend-mode:overlay"><ellipse id="element-g0-e0" cx="44" cy="44" fill="#f99e5c" fill-opacity="1" stroke="#fde6d6" stroke-opacity="1" stroke-width="1" rx="20" ry="20"/><path id="element-g0-e1" fill="#72da82" fill-opacity=".99" stroke="#dbf5df" stroke-opacity="1" stroke-width="1" d="M 82 42 H 82 L 82 42 V 42 A 40 40 0 0 1 42 82 H 42 L 42 82 V 82 A 40 40 0 0 1 82 42 Z"/></g><g id="overlay-effects" transform="scale(0.851562)"><svg xmlns="http://www.w3.org/2000/svg" xmlns:svg="http://www.w3.org/2000/svg" id="svg2" width="128" height="128" fill="none" version="1.1" viewBox="0 0 128 128"><path id="path1" fill="#fff" fill-opacity=".66" d="M 99.816511,9.9999999e-8 C 115.38202,9.9999999e-8 128,12.618216 128,28.183486 v 1.99997 C 128,14.618187 115.38202,1.9999707 99.816511,1.9999707 H 28.183486 C 12.618216,1.9999707 0,14.618187 0,30.183456 v -1.99997 c 0,-15.56527 12.618216,-28.1834859 28.183486,-28.1834859 z" style="fill:#fff;fill-opacity:.40405965;stroke-width:.999999"/><path id="path2" fill="#000" fill-opacity=".22" d="M 99.816511,128 C 115.38202,128 128,115.38202 128,99.816512 v -1.999971 c 0,15.565619 -12.61798,28.183599 -28.183489,28.183599 H 28.183486 C 12.618216,126.00014 0,113.38216 0,97.816541 v 1.999971 C 0,115.38202 12.618216,128 28.183486,128 Z" style="fill:#000;fill-opacity:.22;stroke-width:.999999"/></svg></g><g id="overlay-frame" transform="scale(0.851562)"><svg xmlns="http://www.w3.org/2000/svg" xmlns:svg="http://www.w3.org/2000/svg" xmlns:xlink="http://www.w3.org/1999/xlink" id="svg4" width="128" height="128" version="1.1" viewBox="0 0 128 128"><defs id="defs1"><linearGradient id="linearGradient1"><stop style="stop-color:#cdcdcd;stop-opacity:1" id="stop1" offset="0"/><stop style="stop-color:gray;stop-opacity:1" id="stop2" offset="1"/></linearGradient><linearGradient id="linearGradient2" x1="-11.156" x2="139.156" y1="-11.156" y2="139.156" gradientTransform="matrix(0.85156203,0,0,0.85156203,3.1996886e-5,3.1996886e-5)" gradientUnits="userSpaceOnUse" xlink:href="#linearGradient1"/></defs><g id="icon" transform="translate(9.5,9.5)"><path style="baseline-shift:baseline;display:inline;overflow:visible;opacity:1;fill:url(#linearGradient2);stroke:none;stroke-width:.999998;stroke-dasharray:none;enable-background:accumulate;stop-color:#000;stop-opacity:1" id="rect1" d="m 13.475468,-9.5000003 c -12.58949761,0 -22.9754683,10.38597152 -22.9754683,22.9754693 V 95.524537 C -9.5000003,108.11403 0.88597039,118.5 13.475468,118.5 H 95.524529 C 108.11402,118.5 118.5,108.11403 118.5,95.524537 V 13.475469 C 118.5,0.88597122 108.11402,-9.5000003 95.524529,-9.5000003 Z m 4.512266,20.2561333 h 73.02453 c 4.002282,0 6.975471,2.973187 6.975471,6.975469 v 73.280667 c 0,4.002284 -2.973189,6.975463 -6.975471,6.975463 h -73.02453 c -4.002281,0 -6.975468,-2.973179 -6.975468,-6.975463 V 17.731602 c 0,-4.002282 2.973187,-6.975469 6.975468,-6.975469 z"/></g></svg></g></g></svg>