<?xml version="1.0" encoding="UTF-8"?>
<svg xmlns="http://www.w3.org/2000/svg" xmlns:xlink="http://www.w3.org/1999/xlink" width="128" height="128" viewBox="0 0 128 128">
<defs>
<linearGradient id="linear-pattern-0" gradientUnits="userSpaceOnUse" x1="12" y1="12" x2="116" y2="116">
<stop offset="0" stop-color="rgb(94.117647%, 79.607844%, 83.137256%)" stop-opacity="1"/>
<stop offset="1" stop-color="rgb(94.117647%, 79.607844%, 94.117647%)" stop-opacity="1"/>
</linearGradient>
<clipPath id="clip-0">
<path clip-rule="nonzero" d="M 12 12 L 116 12 L 116 116 L 12 116 Z M 12 12 "/>
</clipPath>
<clipPath id="clip-1">
<path clip-rule="nonzero" d="M 12 36 C 12 22.746094 22.746094 12 36 12 L 92 12 C 105.253906 12 116 22.746094 116 36 L 116 92 C 116 105.253906 105.253906 116 92 116 L 36 116 C 22.746094 116 12 105.253906 12 92 Z M 12 36 "/>
</clipPath>
<clipPath id="clip-2">
<path clip-rule="nonzero" d="M 22 22 L 106 22 L 106 106 L 22 106 Z M 22 22 "/>
</clipPath>
<clipPath id="clip-3">
<path clip-rule="nonzero" d="M 12 36 C 12 22.746094 22.746094 12 36 12 L 92 12 C 105.253906 12 116 22.746094 116 36 L 116 92 C 116 105.253906 105.253906 116 92 116 L 36 116 C 22.746094 116 12 105.253906 12 92 Z M 12 36 "/>
</clipPath>
<clipPath id="clip-4">
<path clip-rule="nonzero" d="M 39 39 L 89 39 L 89 89 L 39 89 Z M 39 39 "/>
</clipPath>
<clipPath id="clip-5">
<path clip-rule="nonzero" d="M 12 36 C 12 22.746094 22.746094 12 36 12 L 92 12 C 105.253906 12 116 22.746094 116 36 L 116 92 C 116 105.253906 105.253906 116 92 116 L 36 116 C 22.746094 116 12 105.253906 12 92 Z M 12 36 "/>
</clipPath>
<clipPath id="clip-6">
<path clip-rule="nonzero" d="M 12 12 L 116 12 L 116 116 L 12 116 Z M 12 12 "/>
</clipPath>
<clipPath id="clip-7">
<path clip-rule="nonzero" d="M 12 36 C 12 22.746094 22.746094 12 36 12 L 92 12 C 105.253906 12 116 22.746094 116 36 L 116 92 C 116 105.253906 105.253906 116 92 116 L 36 116 C 22.746094 116 12 105.253906 12 92 Z M 12 36 "/>
</clipPath>
<clipPath id="clip-8">
<path clip-rule="nonzero" d="M 25 25 L 103 25 L 103 103 L 25 103 Z M 25 25 "/>
</clipPath>
<clipPath id="clip-9">
<path clip-rule="nonzero" d="M 12 36 C 12 22.746094 22.746094 12 36 12 L 92 12 C 105.253906 12 116 22.746094 116 36 L 116 92 C 116 105.253906 105.253906 116 92 116 L 36 116 C 22.746094 116 12 105.253906 12 92 Z M 12 36 "/>
</clipPath>
<clipPath id="clip-10">
<path clip-rule="nonzero" d="M 12 12 L 116 12 L 116 116 L 12 116 Z M 12 12 "/>
</clipPath>
<clipPath id="clip-11">
<path clip-rule="nonzero" d="M 12 36 C 12 22.746094 22.746094 12 36 12 L 92 12 C 105.253906 12 116 22.746094 116 36 L 116 92 C 116 105.253906 105.253906 116 92 116 L 36 116 C 22.746094 116 12 105.253906 12 92 Z M 12 36 "/>
</clipPath>
<linearGradient id="linear-pattern-1" gradientUnits="userSpaceOnUse" x1="27.4375" y1="12" x2="100.563004" y2="116">
<stop offset="0" stop-color="rgb(85.098039%, 85.098039%, 85.098039%)" stop-opacity="1"/>
<stop offset="1" stop-color="rgb(50.980392%, 50.980392%, 57.254902%)" stop-opacity="1"/>
</linearGradient>
</defs>
<path fill-rule="nonzero" fill="url(#linear-pattern-0)" stroke-width="1" stroke-linecap="butt" stroke-linejoin="miter" stroke="rgb(100%, 0%, 0%)" stroke-opacity="0.2" stroke-miterlimit="10" d="M 12 36 C 12 22.746094 22.746094 12 36 12 L 92 12 C 105.253906 12 116 22.746094 116 36 L 116 92 C 116 105.253906 105.253906 116 92 116 L 36 116 C 22.746094 116 12 105.253906 12 92 Z M 12 36 "/>
<g clip-path="url(#clip-0)">
<g clip-path="url(#clip-1)">
<path fill="none" stroke-width="1" stroke-linecap="butt" stroke-linejoin="miter" stroke="rgb(0%, 0%, 0%)" stroke-opacity="0.2" stroke-miterlimit="10" d="M 25 12 L 25 116 M 12 25 L 116 25 "/>
<path fill="none" stroke-width="1" stroke-linecap="butt" stroke-linejoin="miter" stroke="rgb(0%, 0%, 0%)" stroke-opacity="0.2" stroke-miterlimit="10" d="M 38 12 L 38 116 M 12 38 L 116 38 "/>
<path fill="none" stroke-width="1" stroke-linecap="butt" stroke-linejoin="miter" stroke="rgb(0%, 0%, 0%)" stroke-opacity="0.2" stroke-miterlimit="10" d="M 51 12 L 51 116 M 12 51 L 116 51 "/>
<path fill="none" stroke-width="1" stroke-linecap="butt" stroke-linejoin="miter" stroke="rgb(0%, 0%, 0%)" stroke-opacity="0.2" stroke-miterlimit="10" d="M 64 12 L 64 116 M 12 64 L 116 64 "/>
<path fill="none" stroke-width="1" stroke-linecap="butt" stroke-linejoin="miter" stroke="rgb(0%, 0%, 0%)" stroke-opacity="0.2" stroke-miterlimit="10" d="M 77 12 L 77 116 M 12 77 L 116 77 "/>
<path fill="none" stroke-width="1" stroke-linecap="butt" stroke-linejoin="miter" stroke="rgb(0%, 0%, 0%)" stroke-opacity="0.2" stroke-miterlimit="10" d="M 90 12 L 90 116 M 12 90 L 116 90 "/>
<path fill="none" stroke-width="1" stroke-linecap="butt" stroke-linejoin="miter" stroke="rgb(0%, 0%, 0%)" stroke-opacity="0.2" stroke-miterlimit="10" d="M 103 12 L 103 116 M 12 103 L 116 103 "/>
</g>
</g>
<g clip-path="url(#clip-2)">
<g clip-path="url(#clip-3)">
<path fill="none" stroke-width="1" stroke-linecap="butt" stroke-linejoin="miter" stroke="rgb(100%, 0%, 0%)" stroke-opacity="0.5" stroke-miterlimit="10" d="M 23 23 L 105 23 L 105 105 L 23 105 Z M 23 23 "/>
</g>
</g>
<g clip-path="url(#clip-4)">
<g clip-path="url(#clip-5)">
<path fill="none" stroke-width="1" stroke-linecap="butt" stroke-linejoin="miter" stroke="rgb(100%, 0%, 0%)" stroke-opacity="0.2" stroke-miterlimit="10" d="M 40 40 L 88 40 L 88 88 L 40 88 Z M 40 40 "/>
</g>
</g>
<g clip-path="url(#clip-6)">
<g clip-path="url(#clip-7)">
<path fill="none" stroke-width="1" stroke-linecap="butt" stroke-linejoin="miter" stroke="rgb(100%, 0%, 0%)" stroke-opacity="0.5" stroke-miterlimit="10" d="M 104 64 C 104 86.089844 86.089844 104 64 104 C 41.910156 104 24 86.089844 24 64 C 24 41.910156 41.910156 24 64 24 C 86.089844 24 104 41.910156 104 64 "/>
</g>
</g>
<g clip-path="url(#clip-8)">
<g clip-path="url(#clip-9)">
<path fill="none" stroke-width="1" stroke-linecap="butt" stroke-linejoin="miter" stroke="rgb(100%, 0%, 0%)" stroke-opacity="0.2" stroke-miterlimit="10" d="M 88 64 C 88 77.253906 77.253906 88 64 88 C 50.746094 88 40 77.253906 40 64 C 40 50.746094 50.746094 40 64 40 C 77.253906 40 88 50.746094 88 64 "/>
</g>
</g>
<g clip-path="url(#clip-10)">
<g clip-path="url(#clip-11)">
<path fill="none" stroke-width="6" stroke-linecap="butt" stroke-linejoin="miter" stroke="rgb(100%, 0%, 0%)" stroke-opacity="0.5" stroke-miterlimit="10" d="M 90 12 L 60 128 "/>
</g>
</g>
<path fill="none" stroke-width="10" stroke-linecap="butt" stroke-linejoin="miter" stroke="url(#linear-pattern-1)" stroke-miterlimit="4" d="M 36 17 L 92 17 C 102.492188 17 111 25.507812 111 36 L 111 92 C 111 102.492188 102.492188 111 92 111 L 36 111 C 25.507812 111 17 102.492188 17 92 L 17 36 C 17 25.507812 25.507812 17 36 17 Z M 36 17 "/>
<path fill-rule="nonzero" fill="rgb(0%, 0%, 0%)" fill-opacity="0.196032" d="M 12 88 L 12 92 C 12 105.296875 22.703125 116 36 116 L 92 116 C 105.296875 116 116 105.296875 116 92 L 116 88 C 116 101.296875 105.296875 112 92 112 L 36 112 C 22.703125 112 12 101.296875 12 88 Z M 12 88 "/>
<path fill-rule="nonzero" fill="rgb(100%, 100%, 100%)" fill-opacity="0.399116" d="M 12 40 L 12 36 C 12 22.703125 22.703125 12 36 12 L 92 12 C 105.296875 12 116 22.703125 116 36 L 116 40 C 116 26.703125 105.296875 16 92 16 L 36 16 C 22.703125 16 12 26.703125 12 40 Z M 12 40 "/>
</svg>
